<?xml version="1.0" standalone="no"?>
<!DOCTYPE svg PUBLIC "-//W3C//DTD SVG 20010904//EN"
 "http://www.w3.org/TR/2001/REC-SVG-20010904/DTD/svg10.dtd">
<svg version="1.0" xmlns="http://www.w3.org/2000/svg"
 width="860.000000pt" height="860.000000pt" viewBox="0 0 860.000000 860.000000"
 preserveAspectRatio="xMidYMid meet">
<metadata>
Created by potrace 1.14, written by Peter Selinger 2001-2017
</metadata>
<g transform="translate(0.000000,860.000000) scale(0.100000,-0.100000)"
fill="#000000" stroke="none">
<path d="M6845 6924 c-104 -30 -121 -33 -165 -38 -59 -6 -169 -31 -250 -58
-289 -94 -512 -298 -643 -588 -26 -56 -75 -183 -83 -210 -17 -67 -55 -220 -59
-240 -6 -31 -13 -68 -20 -100 -2 -14 -7 -47 -11 -75 -3 -27 -8 -59 -10 -70 -2
-11 -6 -45 -9 -75 -4 -30 -8 -71 -10 -90 -17 -165 -21 -206 -30 -345 -3 -49
-8 -112 -10 -140 -2 -27 -7 -95 -10 -150 -18 -274 -26 -380 -40 -495 -2 -19
-7 -59 -10 -89 -4 -30 -8 -61 -10 -70 -1 -9 -6 -36 -9 -61 -3 -25 -15 -90 -26
-145 -26 -133 -28 -144 -34 -153 -3 -5 -7 -21 -10 -37 -8 -43 -18 -48 -77 -36
-30 6 -79 13 -109 17 -30 3 -66 7 -79 9 -206 33 -823 17 -1151 -30 -14 -2 -50
-6 -81 -10 -31 -3 -65 -7 -75 -9 -11 -2 -44 -7 -74 -11 -30 -4 -64 -9 -75 -11
-11 -2 -33 -7 -50 -9 -25 -5 -99 -19 -215 -41 -14 -3 -52 -12 -85 -21 -57 -14
-70 -17 -113 -27 -9 -2 -37 -9 -62 -16 -25 -7 -52 -14 -60 -15 -51 -11 -295
-92 -345 -115 -11 -4 -57 -24 -103 -43 -289 -122 -423 -269 -334 -368 l27 -31
60 17 c33 9 66 17 74 19 8 1 26 -11 41 -27 l26 -29 95 26 c130 35 509 133 544
140 90 19 172 40 181 47 6 5 13 6 16 3 3 -3 35 2 72 10 36 9 81 18 99 21 17 4
50 10 72 15 69 15 147 29 215 40 142 21 156 23 275 35 39 4 81 9 95 12 49 9
506 11 565 2 85 -13 218 -47 290 -75 11 -4 22 -8 25 -9 126 -43 307 -157 425
-267 73 -68 192 -214 183 -223 -3 -3 -32 7 -64 22 -32 15 -61 28 -64 29 -3 0
-16 5 -30 11 -14 6 -41 17 -60 25 -82 34 -354 105 -470 122 -19 3 -46 8 -60
11 -14 3 -50 7 -80 10 -30 3 -68 8 -85 10 -137 20 -633 28 -810 12 -142 -12
-219 -21 -270 -31 -22 -4 -116 -19 -127 -20 -3 -1 -9 -4 -13 -8 -4 -4 -13 -4
-21 -1 -8 3 -20 0 -28 -6 -7 -6 -15 -8 -18 -6 -3 3 -16 1 -30 -4 -14 -5 -40
-12 -59 -15 -110 -18 -350 -97 -474 -155 -130 -62 -131 -66 -18 -67 75 0 112
-6 158 -23 33 -12 67 -23 75 -24 8 -1 17 -5 20 -8 3 -3 25 -19 50 -34 150 -93
272 -254 314 -410 27 -103 17 -234 -24 -317 -11 -22 -10 -22 10 2 114 134 101
361 -32 540 -40 53 -129 136 -177 165 -28 17 -51 33 -51 36 0 16 70 19 94 4
23 -15 66 -15 159 0 66 10 114 16 177 21 36 3 103 9 150 13 90 8 568 6 610 -3
14 -2 52 -7 85 -11 78 -8 291 -43 375 -61 36 -8 76 -17 90 -20 14 -2 30 -6 36
-8 6 -3 29 14 50 36 195 206 605 104 811 -201 97 -145 136 -342 89 -455 -24
-58 -8 -42 22 22 23 49 27 70 27 152 0 53 -5 104 -12 115 -9 15 -8 26 4 48 8
16 18 25 23 21 17 -19 35 -122 34 -194 -2 -89 -5 -102 -38 -172 -29 -62 -64
-97 -151 -151 l-60 -38 40 6 c40 7 126 44 156 68 29 23 79 100 91 141 22 77
17 193 -12 261 -18 42 -21 65 -9 86 11 22 12 22 30 -12 10 -19 18 -42 19 -51
1 -64 56 16 102 149 32 91 33 95 53 218 13 78 13 326 0 420 -11 79 -55 227
-90 302 -51 112 -114 184 -188 220 -31 15 -36 22 -32 43 3 14 7 36 10 50 3 14
9 48 15 75 11 58 17 107 25 190 3 33 7 79 10 102 6 59 14 294 20 598 5 250 14
546 20 630 5 79 16 216 19 233 2 9 7 44 10 77 16 135 59 320 103 440 109 298
291 473 554 530 47 10 64 10 100 -3 24 -8 51 -20 60 -28 8 -8 18 -14 22 -14 3
0 36 -14 74 -32 108 -50 189 -44 256 20 136 129 119 370 -31 434 -90 38 -111
49 -117 58 -4 6 -25 20 -48 32 -52 26 -170 32 -242 12z"/>
<path d="M2528 6085 c-1 -2 -41 -6 -88 -9 -232 -18 -463 -65 -615 -125 -311
-125 -453 -311 -440 -581 4 -92 11 -134 25 -160 5 -10 7 -20 4 -22 -8 -9 67
-199 119 -298 69 -134 263 -422 328 -490 8 -8 25 -28 38 -45 25 -33 115 -135
206 -235 79 -86 303 -308 396 -392 146 -132 164 -147 169 -141 3 3 -1 8 -7 10
-7 3 -13 9 -13 15 0 6 -16 37 -36 70 -20 32 -34 61 -32 64 4 4 79 -57 156
-128 17 -16 32 -25 32 -19 0 5 -4 13 -10 16 -5 3 -10 11 -10 17 0 11 46 -16
70 -41 51 -54 42 -18 -20 79 -27 42 -181 314 -183 323 -4 18 210 139 387 218
48 21 92 39 96 39 11 0 189 -311 290 -505 23 -44 39 -71 36 -60 -3 11 -10 40
-17 65 -7 25 -13 50 -14 55 -3 11 -44 152 -50 173 -23 68 127 -180 158 -262 4
-10 10 -17 12 -14 3 2 -6 42 -20 89 -13 46 -25 87 -25 92 0 16 19 6 25 -13 3
-11 12 -26 18 -33 7 -7 32 -52 57 -99 24 -48 45 -86 47 -84 8 8 -126 440 -200
638 l-24 68 66 20 c36 10 107 30 158 44 l91 24 20 -46 c20 -48 86 -232 120
-335 10 -31 21 -59 23 -62 5 -4 3 41 -5 183 -2 39 0 72 4 72 5 0 27 -54 48
-120 22 -66 42 -124 46 -127 4 -4 4 44 1 107 -3 72 -2 109 4 100 5 -8 28 -71
51 -140 23 -69 44 -126 45 -128 3 -3 -1 74 -10 193 -10 143 -19 216 -36 290
-15 69 -13 72 39 78 26 4 63 9 82 12 19 2 56 7 83 10 26 3 69 7 96 10 l49 5
23 -97 c12 -54 23 -108 23 -120 1 -12 5 -26 10 -30 4 -4 5 49 2 119 -4 84 -2
129 5 134 19 11 29 -11 50 -117 12 -57 25 -111 30 -119 4 -8 6 43 3 113 -3
116 -2 128 13 125 17 -3 56 -142 68 -243 17 -138 25 21 11 198 -2 26 0 50 5
52 9 6 452 6 514 1 35 -4 27 3 -69 49 -113 56 -306 124 -411 146 -33 7 -62 14
-63 15 -4 3 -18 63 -27 114 -3 19 -17 82 -31 139 -13 57 -23 105 -21 107 18
18 698 36 810 20 15 -2 27 1 27 5 0 5 -15 9 -32 9 -64 0 -103 22 -60 33 9 3
-4 5 -30 6 -27 0 -48 5 -48 9 0 5 -6 9 -12 9 -15 0 -83 10 -114 17 -12 2 -45
8 -75 11 -30 4 -63 9 -74 10 -11 2 -45 6 -75 10 -30 3 -66 8 -80 10 -14 2 -68
7 -120 10 -143 10 -160 12 -167 19 -4 3 -26 64 -49 134 -23 70 -56 165 -73
211 l-31 83 232 -7 c281 -9 326 -11 493 -19 72 -4 177 -9 235 -11 58 -2 157
-7 220 -9 109 -5 111 0 8 18 -23 4 -35 11 -32 19 2 7 -8 17 -23 23 -24 10
-188 45 -280 59 -15 3 -48 9 -73 14 -25 5 -58 12 -75 15 -16 3 -41 7 -55 10
-22 5 -238 41 -300 51 -14 2 -63 11 -110 19 -47 8 -105 17 -130 21 -25 3 -85
12 -135 20 -49 8 -128 19 -175 25 -47 5 -96 12 -110 15 -24 4 -66 9 -182 20
-29 3 -66 7 -83 10 -16 2 -59 7 -95 10 -36 3 -81 8 -100 10 -19 2 -80 7 -135
10 -55 4 -118 9 -140 12 -47 5 -721 13 -727 8z m1336 -367 c38 -66 192 -354
202 -378 l11 -25 -96 0 c-53 0 -134 -2 -179 -5 -46 -3 -87 -3 -91 0 -4 3 -29
41 -56 85 -55 93 -155 244 -197 296 -15 20 -28 41 -28 47 0 6 79 10 208 11
l207 2 19 -33z m-879 -23 c14 -14 25 -29 25 -34 0 -4 8 -16 18 -27 10 -10 41
-50 70 -89 28 -38 55 -75 59 -80 5 -6 36 -52 71 -102 70 -103 72 -97 -38 -108
-36 -4 -74 -9 -85 -11 -26 -5 -106 -16 -126 -18 -11 -1 -46 43 -97 119 -77
116 -157 228 -207 290 -14 17 -25 33 -25 36 0 8 107 28 194 36 33 3 63 7 65 9
13 12 54 1 76 -21z m-729 -315 c35 -36 73 -77 84 -90 12 -14 36 -41 54 -60 17
-19 44 -51 59 -71 l27 -35 -183 -50 c-100 -27 -186 -49 -192 -49 -24 0 -46
200 -30 277 8 41 40 110 66 140 26 32 23 34 115 -62z m1935 -310 c6 -16 15
-30 21 -30 5 0 7 -4 4 -9 -3 -4 10 -46 28 -92 51 -128 52 -132 27 -124 -12 3
-95 7 -185 7 l-163 0 -45 114 c-49 126 -51 117 32 129 25 4 53 9 64 11 10 2
44 6 75 10 31 3 58 8 60 10 2 2 20 4 38 4 29 0 36 -5 44 -30z m-680 -185 c27
-49 49 -94 49 -100 0 -8 -130 -42 -269 -71 -13 -3 -28 -6 -33 -7 -5 -1 -33 44
-63 101 l-53 102 26 6 c15 3 52 12 82 20 30 7 69 15 85 18 17 3 44 10 60 15
56 18 66 11 116 -84z m-740 -127 c34 -48 46 -65 89 -126 27 -38 29 -43 13 -49
-42 -15 -120 -44 -138 -52 -11 -5 -51 -21 -90 -36 -38 -15 -112 -45 -162 -68
-51 -22 -95 -39 -97 -36 -11 12 -138 261 -135 264 8 7 455 143 476 144 7 1 27
-18 44 -41z"/>
<path d="M5478 5733 c6 -2 18 -2 25 0 6 3 1 5 -13 5 -14 0 -19 -2 -12 -5z"/>
<path d="M4511 4284 c0 -11 3 -14 6 -6 3 7 2 16 -1 19 -3 4 -6 -2 -5 -13z"/>
<path d="M2838 2579 c-198 -27 -309 -212 -258 -429 53 -226 293 -449 513 -476
23 -3 47 -7 52 -8 24 -8 143 18 185 39 74 38 141 125 157 204 10 46 6 155 -7
201 -55 202 -240 391 -440 450 -83 24 -131 28 -202 19z m304 -258 c162 -73
240 -304 141 -417 -97 -111 -315 -43 -393 123 -67 143 -30 275 89 314 38 12
113 3 163 -20z"/>
<path d="M3019 2273 c-21 -39 -16 -131 9 -178 26 -49 68 -101 57 -70 -4 11
-14 38 -22 60 -18 50 -11 124 16 170 11 19 17 36 13 36 -52 8 -60 6 -73 -18z"/>
<path d="M2948 2272 c-32 -33 -47 -74 -43 -122 8 -124 109 -236 228 -254 48
-8 47 4 -4 29 -52 24 -110 82 -136 135 -36 72 -46 139 -29 205 7 29 7 30 -16
7z"/>
<path d="M5338 2585 c-2 -2 -21 -5 -43 -8 -82 -11 -120 -28 -176 -79 -70 -63
-105 -163 -95 -272 7 -74 35 -178 46 -171 3 2 7 -6 7 -17 1 -12 7 -24 13 -28
7 -4 11 -11 11 -16 -1 -5 6 -17 14 -27 8 -9 15 -21 15 -25 0 -5 31 -39 69 -78
257 -259 614 -261 726 -4 16 34 20 66 20 140 -1 81 -5 105 -29 165 -47 115
-128 221 -232 302 -34 27 -162 90 -196 97 -84 17 -145 25 -150 21z m263 -265
c52 -27 122 -97 148 -148 47 -92 45 -194 -6 -260 -50 -65 -149 -82 -240 -40
-105 48 -193 177 -193 284 0 119 84 200 196 190 28 -2 71 -14 95 -26z"/>
<path d="M5459 2273 c-23 -43 -17 -133 14 -184 46 -79 60 -91 38 -34 -26 69
-24 140 4 192 25 46 24 53 -15 53 -19 0 -31 -8 -41 -27z"/>
<path d="M5375 2233 c-47 -97 14 -242 129 -307 46 -26 106 -41 106 -26 0 9 -8
12 -26 9 -4 0 -10 3 -13 8 -3 5 -22 20 -41 33 -59 41 -114 120 -125 182 -11
61 -12 72 -4 105 9 44 -5 42 -26 -4z"/>
<path d="M3550 2323 c0 -3 6 -14 14 -22 13 -15 52 -113 63 -156 9 -39 10 -170
1 -205 -15 -55 -46 -118 -76 -151 -35 -40 -101 -86 -136 -95 -46 -11 -42 -27
5 -19 67 10 139 49 189 101 25 26 39 43 31 39 -7 -4 -4 5 7 21 40 55 50 177
23 273 -24 86 -121 257 -121 214z"/>
</g>
</svg>
